<svg xmlns="http://www.w3.org/2000/svg" style="display:none">
<!-- HomeTogether brand icon set. Multi-color: navy #0D365F outlines, teal #1F7A8C,
     honey #F0A63A, mint #8FD1C7, pale #EAF4F6 accents. 24x24 grid, 1.7 stroke. -->

<symbol id="i-phone" viewBox="0 0 24 24">
  <path d="M5.5 3.5c-1 .3-1.9 1.3-1.9 2.6 0 7 7.3 14.3 14.3 14.3 1.3 0 2.3-.9 2.6-1.9.2-.7-.1-1.4-.7-1.8l-2.9-1.9c-.6-.4-1.4-.3-1.9.2l-1 1c-2.2-1.1-4.3-3.2-5.4-5.4l1-1c.5-.5.6-1.3.2-1.9L7.9 4.2c-.4-.6-1.1-.9-1.8-.7z" fill="#1F7A8C" stroke="#0D365F" stroke-width="1.5" stroke-linejoin="round"/>
  <path d="M15 5.5a4 4 0 0 1 3.5 3.5M15.5 2.5a7 7 0 0 1 6 6" fill="none" stroke="#F0A63A" stroke-width="1.7" stroke-linecap="round"/>
</symbol>

<symbol id="i-calendar" viewBox="0 0 24 24">
  <rect x="3" y="5" width="18" height="16" rx="2.5" fill="#EAF4F6" stroke="#0D365F" stroke-width="1.7"/>
  <path d="M3 9.5h18v-2A2.5 2.5 0 0 0 18.5 5h-13A2.5 2.5 0 0 0 3 7.5z" fill="#1F7A8C" stroke="#0D365F" stroke-width="1.7"/>
  <path d="M8 2.5V6M16 2.5V6" stroke="#0D365F" stroke-width="1.7" stroke-linecap="round"/>
  <circle cx="12" cy="15" r="2.4" fill="#F0A63A" stroke="#0D365F" stroke-width="1.3"/>
</symbol>

<symbol id="i-pill" viewBox="0 0 24 24">
  <g transform="rotate(-35 12 12)">
    <rect x="3" y="8.7" width="18" height="6.6" rx="3.3" fill="#fff" stroke="#0D365F" stroke-width="1.6"/>
    <path d="M6.3 8.7H12v6.6H6.3A3.3 3.3 0 0 1 3 12a3.3 3.3 0 0 1 3.3-3.3z" fill="#1F7A8C" stroke="#0D365F" stroke-width="1.6"/>
  </g>
  <circle cx="18.4" cy="5.6" r="2.1" fill="#F0A63A" stroke="#0D365F" stroke-width="1.3"/>
</symbol>

<symbol id="i-steth" viewBox="0 0 24 24">
  <path d="M5.5 3.5v5a4.5 4.5 0 0 0 9 0v-5" fill="none" stroke="#0D365F" stroke-width="1.8" stroke-linecap="round"/>
  <path d="M10 13v2.5a4.5 4.5 0 0 0 9 0V13" fill="none" stroke="#0D365F" stroke-width="1.8" stroke-linecap="round"/>
  <circle cx="19" cy="10.5" r="2.7" fill="#1F7A8C" stroke="#0D365F" stroke-width="1.6"/>
  <circle cx="19" cy="10.5" r="1" fill="#EAF4F6"/>
  <circle cx="5.5" cy="3.3" r="1.4" fill="#F0A63A"/>
  <circle cx="14.5" cy="3.3" r="1.4" fill="#F0A63A"/>
</symbol>

<symbol id="i-chat" viewBox="0 0 24 24">
  <path d="M4 4h13a2 2 0 0 1 2 2v7a2 2 0 0 1-2 2H9l-4.5 3.5V15H4a2 2 0 0 1-2-2V6a2 2 0 0 1 2-2z" fill="#1F7A8C" stroke="#0D365F" stroke-width="1.6" stroke-linejoin="round"/>
  <circle cx="7.2" cy="9.5" r="1.15" fill="#EAF4F6"/><circle cx="10.7" cy="9.5" r="1.15" fill="#EAF4F6"/><circle cx="14.2" cy="9.5" r="1.15" fill="#EAF4F6"/>
  <path d="M21.8 21l-2.6-2H16a6.5 6.5 0 0 1-2-1h5a3 3 0 0 0 3-3v-4.4a2.9 2.9 0 0 1 .8 2z" fill="#F0A63A" stroke="#0D365F" stroke-width="1.2" stroke-linejoin="round"/>
</symbol>

<symbol id="i-eye" viewBox="0 0 24 24">
  <path d="M2.5 12S6 5.8 12 5.8 21.5 12 21.5 12 18 18.2 12 18.2 2.5 12 2.5 12z" fill="#EAF4F6" stroke="#0D365F" stroke-width="1.7" stroke-linejoin="round"/>
  <circle cx="12" cy="12" r="3.4" fill="#1F7A8C" stroke="#0D365F" stroke-width="1.4"/>
  <circle cx="13.2" cy="10.8" r="1" fill="#fff"/>
</symbol>

<symbol id="i-alert" viewBox="0 0 24 24">
  <path d="M6.5 14a5.5 5.5 0 0 1 11 0v2h-11z" fill="#F0A63A" stroke="#0D365F" stroke-width="1.6" stroke-linejoin="round"/>
  <rect x="4" y="16" width="16" height="3.6" rx="1.4" fill="#1F7A8C" stroke="#0D365F" stroke-width="1.6"/>
  <path d="M12 2.6v2.2M5.4 4.9 6.9 6.6M18.6 4.9 17.1 6.6" stroke="#0D365F" stroke-width="1.7" stroke-linecap="round"/>
</symbol>

<symbol id="i-gear" viewBox="0 0 24 24">
  <path d="M4 6.5h16M4 12h16M4 17.5h16" stroke="#0D365F" stroke-width="1.7" stroke-linecap="round"/>
  <circle cx="9.2" cy="6.5" r="2.3" fill="#1F7A8C" stroke="#0D365F" stroke-width="1.4"/>
  <circle cx="15" cy="12" r="2.3" fill="#F0A63A" stroke="#0D365F" stroke-width="1.4"/>
  <circle cx="7.6" cy="17.5" r="2.3" fill="#8FD1C7" stroke="#0D365F" stroke-width="1.4"/>
</symbol>

<symbol id="i-plug" viewBox="0 0 24 24">
  <path d="M8.5 9.5h7v3.5a3.5 3.5 0 0 1-3.5 3.5 3.5 3.5 0 0 1-3.5-3.5z" fill="#1F7A8C" stroke="#0D365F" stroke-width="1.6" stroke-linejoin="round"/>
  <path d="M9.8 9.3V4.8M14.2 9.3V4.8" stroke="#0D365F" stroke-width="1.8" stroke-linecap="round"/>
  <path d="M12 16.7v2a3 3 0 0 0 3 3h2.2" fill="none" stroke="#F0A63A" stroke-width="1.8" stroke-linecap="round"/>
</symbol>

<symbol id="i-wifi" viewBox="0 0 24 24">
  <rect x="3.1" y="14.5" width="2.9" height="5.5" rx="1" fill="#8FD1C7" stroke="#0D365F" stroke-width="1.3"/>
  <rect x="8.1" y="11.5" width="2.9" height="8.5" rx="1" fill="#1F7A8C" stroke="#0D365F" stroke-width="1.3"/>
  <rect x="13.1" y="8.5" width="2.9" height="11.5" rx="1" fill="#1F7A8C" stroke="#0D365F" stroke-width="1.3"/>
  <rect x="18.1" y="5.5" width="2.9" height="14.5" rx="1" fill="#F0A63A" stroke="#0D365F" stroke-width="1.3"/>
</symbol>

<symbol id="i-wave" viewBox="0 0 24 24">
  <rect x="7.1" y="4.6" width="2.6" height="7.4" rx="1.3" fill="#F0A63A" stroke="#0D365F" stroke-width="1.3"/>
  <rect x="10.15" y="3.2" width="2.6" height="8.8" rx="1.3" fill="#F0A63A" stroke="#0D365F" stroke-width="1.3"/>
  <rect x="13.2" y="4.6" width="2.6" height="7.4" rx="1.3" fill="#F0A63A" stroke="#0D365F" stroke-width="1.3"/>
  <rect x="4" y="10.2" width="2.6" height="5" rx="1.3" transform="rotate(-28 5.3 12.7)" fill="#F0A63A" stroke="#0D365F" stroke-width="1.3"/>
  <path d="M7 10.9h8.8v3.6a4.4 4.4 0 0 1-4.4 4.4A4.4 4.4 0 0 1 7 14.5z" fill="#F0A63A" stroke="#0D365F" stroke-width="1.4" stroke-linejoin="round"/>
  <path d="M19.2 8.2a6.4 6.4 0 0 1 1.6 3.6M20.9 5.4a9.6 9.6 0 0 1 .9 2" fill="none" stroke="#1F7A8C" stroke-width="1.6" stroke-linecap="round"/>
</symbol>

<symbol id="i-box" viewBox="0 0 24 24">
  <path d="M3 8l9-4.5L21 8v8l-9 4.5L3 16z" fill="#EAF4F6" stroke="#0D365F" stroke-width="1.6" stroke-linejoin="round"/>
  <path d="M3 8l9 4.5L21 8M12 12.5v8" fill="none" stroke="#0D365F" stroke-width="1.6" stroke-linejoin="round"/>
  <path d="M7.5 5.8l9 4.5v3.2l-2.6-1.2v-3.1l-9-4.4z" fill="#F0A63A" stroke="#0D365F" stroke-width="1.1" stroke-linejoin="round"/>
</symbol>

<symbol id="i-home" viewBox="0 0 24 24">
  <path d="M3.5 11 12 3.5 20.5 11v8.5a1.5 1.5 0 0 1-1.5 1.5H5a1.5 1.5 0 0 1-1.5-1.5z" fill="#EAF4F6" stroke="#0D365F" stroke-width="1.7" stroke-linejoin="round"/>
  <path d="M9.7 21v-6.3a1 1 0 0 1 1-1h2.6a1 1 0 0 1 1 1V21" fill="#1F7A8C" stroke="#0D365F" stroke-width="1.5" stroke-linejoin="round"/>
  <circle cx="12" cy="9" r="1.4" fill="#F0A63A" stroke="#0D365F" stroke-width="1.1"/>
</symbol>

<symbol id="i-family" viewBox="0 0 24 24">
  <circle cx="7" cy="7.6" r="2.7" fill="#1F7A8C" stroke="#0D365F" stroke-width="1.5"/>
  <path d="M2.5 19.5a4.5 4.5 0 0 1 9 0z" fill="#1F7A8C" stroke="#0D365F" stroke-width="1.5" stroke-linejoin="round"/>
  <circle cx="17" cy="7.6" r="2.7" fill="#F0A63A" stroke="#0D365F" stroke-width="1.5"/>
  <path d="M12.5 19.5a4.5 4.5 0 0 1 9 0z" fill="#F0A63A" stroke="#0D365F" stroke-width="1.5" stroke-linejoin="round"/>
  <circle cx="12" cy="11.6" r="2.2" fill="#8FD1C7" stroke="#0D365F" stroke-width="1.4"/>
  <path d="M8.6 19.5a3.5 3.5 0 0 1 6.8 0z" fill="#8FD1C7" stroke="#0D365F" stroke-width="1.4" stroke-linejoin="round"/>
</symbol>

<symbol id="i-hospital" viewBox="0 0 24 24">
  <rect x="4" y="5" width="16" height="16" rx="1.6" fill="#EAF4F6" stroke="#0D365F" stroke-width="1.6"/>
  <path d="M9 21v-4.4a1 1 0 0 1 1-1h4a1 1 0 0 1 1 1V21" fill="#1F7A8C" stroke="#0D365F" stroke-width="1.4"/>
  <path d="M12 7.2v4.4M9.8 9.4h4.4" stroke="#F0A63A" stroke-width="1.9" stroke-linecap="round"/>
  <path d="M8 3h8" stroke="#0D365F" stroke-width="1.6" stroke-linecap="round"/>
</symbol>

<symbol id="i-shield" viewBox="0 0 24 24">
  <path d="M12 2.8 4.5 5.6v6c0 5 3.2 8.3 7.5 9.8 4.3-1.5 7.5-4.8 7.5-9.8v-6z" fill="#1F7A8C" stroke="#0D365F" stroke-width="1.6" stroke-linejoin="round"/>
  <path d="M12 2.8 4.5 5.6v6c0 .13 0 .27.01.4H12z" fill="#8FD1C7" stroke="none" opacity=".55"/>
  <path d="M8.6 12.2l2.3 2.3 4.5-4.6" fill="none" stroke="#F0A63A" stroke-width="2" stroke-linecap="round" stroke-linejoin="round"/>
  <path d="M12 2.8 4.5 5.6v6c0 5 3.2 8.3 7.5 9.8 4.3-1.5 7.5-4.8 7.5-9.8v-6z" fill="none" stroke="#0D365F" stroke-width="1.6" stroke-linejoin="round"/>
</symbol>

<symbol id="i-music" viewBox="0 0 24 24">
  <path d="M9.5 18.4V6l11-2.4v12.8" fill="none" stroke="#0D365F" stroke-width="1.7" stroke-linejoin="round"/>
  <ellipse cx="6.7" cy="18.6" rx="2.8" ry="2.2" fill="#1F7A8C" stroke="#0D365F" stroke-width="1.5"/>
  <ellipse cx="17.7" cy="16.6" rx="2.8" ry="2.2" fill="#F0A63A" stroke="#0D365F" stroke-width="1.5"/>
</symbol>

<symbol id="i-mobile" viewBox="0 0 24 24">
  <rect x="7" y="2.5" width="10" height="19" rx="2.4" fill="#EAF4F6" stroke="#0D365F" stroke-width="1.7"/>
  <rect x="9" y="5.4" width="6" height="10.6" rx="1" fill="#1F7A8C" stroke="none"/>
  <circle cx="12" cy="18.6" r="1.2" fill="#F0A63A" stroke="#0D365F" stroke-width="1"/>
</symbol>

<symbol id="i-lock" viewBox="0 0 24 24">
  <path d="M7.5 10V7.5a4.5 4.5 0 0 1 9 0V10" fill="none" stroke="#0D365F" stroke-width="1.8" stroke-linecap="round"/>
  <rect x="4.5" y="10" width="15" height="11" rx="2.4" fill="#1F7A8C" stroke="#0D365F" stroke-width="1.6"/>
  <circle cx="12" cy="14.8" r="1.7" fill="#F0A63A" stroke="#0D365F" stroke-width="1.1"/>
  <path d="M12 16v2.4" stroke="#0D365F" stroke-width="1.6" stroke-linecap="round"/>
</symbol>

<symbol id="i-bell" viewBox="0 0 24 24">
  <path d="M12 3a6 6 0 0 0-6 6v4l-1.8 3a1 1 0 0 0 .9 1.5h13.8a1 1 0 0 0 .9-1.5L18 13V9a6 6 0 0 0-6-6z" fill="#F0A63A" stroke="#0D365F" stroke-width="1.6" stroke-linejoin="round"/>
  <path d="M9.8 20a2.3 2.3 0 0 0 4.4 0" fill="none" stroke="#0D365F" stroke-width="1.6" stroke-linecap="round"/>
  <circle cx="17.4" cy="5.6" r="2.6" fill="#1F7A8C" stroke="#0D365F" stroke-width="1.4"/>
</symbol>

<symbol id="i-heart" viewBox="0 0 24 24">
  <path d="M12 20.5S3.5 15.4 3.5 9.6A4.6 4.6 0 0 1 12 7a4.6 4.6 0 0 1 8.5 2.6c0 5.8-8.5 10.9-8.5 10.9z" fill="#1F7A8C" stroke="#0D365F" stroke-width="1.6" stroke-linejoin="round"/>
  <path d="M7.2 8.2a2.5 2.5 0 0 1 2-1.6" fill="none" stroke="#8FD1C7" stroke-width="1.6" stroke-linecap="round"/>
</symbol>

<symbol id="i-handshake" viewBox="0 0 24 24">
  <path d="M2.5 7h4.2v7.5H2.5z" fill="#1F7A8C" stroke="#0D365F" stroke-width="1.5" stroke-linejoin="round"/>
  <path d="M21.5 7h-4.2v7.5h4.2z" fill="#F0A63A" stroke="#0D365F" stroke-width="1.5" stroke-linejoin="round"/>
  <path d="M6.7 13.5l4.2 4.2a1.6 1.6 0 0 0 2.3 0l4.1-4.2V8.4l-3.5-1.6a2 2 0 0 0-2.3.5L9.2 9.9a1.2 1.2 0 0 0 1.7 1.7l1.9-1.6 4 3.6" fill="#fff" stroke="#0D365F" stroke-width="1.5" stroke-linejoin="round" stroke-linecap="round"/>
</symbol>

<symbol id="i-money" viewBox="0 0 24 24">
  <rect x="2.5" y="6.5" width="19" height="11" rx="1.8" fill="#8FD1C7" stroke="#0D365F" stroke-width="1.6"/>
  <circle cx="12" cy="12" r="2.9" fill="#EAF4F6" stroke="#0D365F" stroke-width="1.4"/>
  <path d="M12 10.4v3.2M11 11.1h1.6a.8.8 0 0 1 0 1.6H11" stroke="#0D365F" stroke-width="1.2" stroke-linecap="round" fill="none"/>
  <circle cx="6" cy="12" r="1" fill="#F0A63A"/><circle cx="18" cy="12" r="1" fill="#F0A63A"/>
</symbol>

<symbol id="i-compass" viewBox="0 0 24 24">
  <circle cx="12" cy="12" r="9.2" fill="#EAF4F6" stroke="#0D365F" stroke-width="1.7"/>
  <path d="M12 4.8 14 12h-4z" fill="#1F7A8C"/>
  <path d="M10 12h4l-2 7.2z" fill="#F0A63A"/>
  <path d="M12 4.8 14 12l-2 7.2L10 12z" fill="none" stroke="#0D365F" stroke-width="1.2" stroke-linejoin="round"/>
  <circle cx="12" cy="12" r="1.1" fill="#0D365F"/>
</symbol>

<symbol id="i-pin" viewBox="0 0 24 24">
  <path d="M12 21.5S5 14.9 5 9.8a7 7 0 0 1 14 0c0 5.1-7 11.7-7 11.7z" fill="#1F7A8C" stroke="#0D365F" stroke-width="1.6" stroke-linejoin="round"/>
  <circle cx="12" cy="9.8" r="2.6" fill="#F0A63A" stroke="#0D365F" stroke-width="1.3"/>
</symbol>

<symbol id="i-check" viewBox="0 0 24 24">
  <circle cx="12" cy="12" r="9.5" fill="#1F7A8C" stroke="#0D365F" stroke-width="1.5"/>
  <path d="M7.5 12.3l3 3 6-6.3" fill="none" stroke="#fff" stroke-width="2.2" stroke-linecap="round" stroke-linejoin="round"/>
</symbol>

<symbol id="i-tv" viewBox="0 0 24 24">
  <rect x="2.5" y="4.5" width="19" height="13" rx="2" fill="#EAF4F6" stroke="#0D365F" stroke-width="1.7"/>
  <rect x="4.6" y="6.6" width="14.8" height="8.8" rx="1" fill="#1F7A8C"/>
  <path d="M8.5 21h7M12 17.7V21" stroke="#0D365F" stroke-width="1.7" stroke-linecap="round"/>
  <path d="M10.6 9.2l3.4 1.9-3.4 1.9z" fill="#F0A63A"/>
</symbol>

<symbol id="i-heart-honey" viewBox="0 0 24 24">
  <path d="M12 20.5S3.5 15.4 3.5 9.6A4.6 4.6 0 0 1 12 7a4.6 4.6 0 0 1 8.5 2.6c0 5.8-8.5 10.9-8.5 10.9z" fill="#F0A63A" stroke="#0D365F" stroke-width="1.6" stroke-linejoin="round"/>
  <path d="M7.2 8.2a2.5 2.5 0 0 1 2-1.6" fill="none" stroke="#fff" stroke-width="1.6" stroke-linecap="round" opacity=".8"/>
</symbol>

<symbol id="i-clock" viewBox="0 0 24 24">
  <circle cx="12" cy="12" r="8.6" fill="#EAF4F6" stroke="#0D365F" stroke-width="1.7"/>
  <path d="M12 7v5l3.4 2" fill="none" stroke="#1F7A8C" stroke-width="1.9" stroke-linecap="round" stroke-linejoin="round"/>
  <circle cx="12" cy="12" r="1.1" fill="#F0A63A"/>
  <path d="M4.6 3.4 2.6 5.4M19.4 3.4l2 2" stroke="#0D365F" stroke-width="1.7" stroke-linecap="round"/>
</symbol>

<symbol id="i-ring" viewBox="0 0 24 24">
  <circle cx="12" cy="12" r="9" fill="#F0A63A" stroke="#0D365F" stroke-width="1.6"/>
  <circle cx="12" cy="12" r="4" fill="#EAF4F6" stroke="#0D365F" stroke-width="1.6"/>
  <path d="M12 3v4.4M12 16.6V21M3 12h4.4M16.6 12H21" stroke="#1F7A8C" stroke-width="2.6"/>
  <circle cx="12" cy="12" r="9" fill="none" stroke="#0D365F" stroke-width="1.6"/>
  <circle cx="12" cy="12" r="4" fill="none" stroke="#0D365F" stroke-width="1.6"/>
</symbol>

<symbol id="i-strength" viewBox="0 0 24 24">
  <path d="M8 8.5h8v7H8z" fill="none" stroke="#0D365F" stroke-width="1.8"/>
  <rect x="5.2" y="6" width="2.9" height="12" rx="1.2" fill="#1F7A8C" stroke="#0D365F" stroke-width="1.5"/>
  <rect x="15.9" y="6" width="2.9" height="12" rx="1.2" fill="#1F7A8C" stroke="#0D365F" stroke-width="1.5"/>
  <rect x="2.2" y="8.4" width="2.2" height="7.2" rx="1" fill="#F0A63A" stroke="#0D365F" stroke-width="1.4"/>
  <rect x="19.6" y="8.4" width="2.2" height="7.2" rx="1" fill="#F0A63A" stroke="#0D365F" stroke-width="1.4"/>
  <path d="M8.5 12h7" stroke="#0D365F" stroke-width="1.8" stroke-linecap="round"/>
</symbol>

<symbol id="i-medkit" viewBox="0 0 24 24">
  <rect x="3" y="7" width="18" height="13" rx="2.2" fill="#1F7A8C" stroke="#0D365F" stroke-width="1.6"/>
  <path d="M9 7V5.4A1.4 1.4 0 0 1 10.4 4h3.2A1.4 1.4 0 0 1 15 5.4V7" fill="none" stroke="#0D365F" stroke-width="1.6"/>
  <circle cx="12" cy="13.5" r="3.9" fill="#EAF4F6" stroke="#0D365F" stroke-width="1.3"/>
  <path d="M12 11.6v3.8M10.1 13.5h3.8" stroke="#F0A63A" stroke-width="1.9" stroke-linecap="round"/>
</symbol>

<symbol id="i-clip" viewBox="0 0 24 24">
  <path d="M16.5 7.5 9.4 14.6a2 2 0 0 0 2.8 2.8l7.1-7.1a4 4 0 0 0-5.7-5.7L6.5 11.7a6 6 0 0 0 8.5 8.5l6-6" fill="none" stroke="#1F7A8C" stroke-width="1.9" stroke-linecap="round" stroke-linejoin="round"/>
  <circle cx="16.5" cy="7.5" r="1.2" fill="#F0A63A"/>
</symbol>

<symbol id="i-mail" viewBox="0 0 24 24">
  <rect x="2.5" y="5" width="19" height="14" rx="2.2" fill="#EAF4F6" stroke="#0D365F" stroke-width="1.7"/>
  <path d="M3.5 6.5 12 13.2l8.5-6.7" fill="none" stroke="#1F7A8C" stroke-width="1.8" stroke-linecap="round" stroke-linejoin="round"/>
  <circle cx="19" cy="6.6" r="2.6" fill="#F0A63A" stroke="#0D365F" stroke-width="1.3"/>
</symbol>

<symbol id="i-sprout" viewBox="0 0 24 24">
  <path d="M12 21v-8.5" stroke="#0D365F" stroke-width="1.8" stroke-linecap="round"/>
  <path d="M12 12.5C12 8 8.8 5.5 4.5 5.5c0 4.5 3.2 7 7.5 7z" fill="#1F7A8C" stroke="#0D365F" stroke-width="1.5" stroke-linejoin="round"/>
  <path d="M12 10.5c0-3.6 2.6-5.6 6-5.6 0 3.6-2.6 5.6-6 5.6z" fill="#8FD1C7" stroke="#0D365F" stroke-width="1.5" stroke-linejoin="round"/>
  <path d="M7.5 21h9" stroke="#F0A63A" stroke-width="2" stroke-linecap="round"/>
</symbol>

<symbol id="i-chart" viewBox="0 0 24 24">
  <path d="M4 3.5V20h16.5" fill="none" stroke="#0D365F" stroke-width="1.8" stroke-linecap="round"/>
  <rect x="7" y="12.5" width="3" height="5" rx=".8" fill="#8FD1C7" stroke="#0D365F" stroke-width="1.2"/>
  <rect x="11.8" y="9" width="3" height="8.5" rx=".8" fill="#1F7A8C" stroke="#0D365F" stroke-width="1.2"/>
  <rect x="16.6" y="5.5" width="3" height="12" rx=".8" fill="#F0A63A" stroke="#0D365F" stroke-width="1.2"/>
</symbol>

<symbol id="i-target" viewBox="0 0 24 24">
  <circle cx="12" cy="12" r="9" fill="#EAF4F6" stroke="#0D365F" stroke-width="1.6"/>
  <circle cx="12" cy="12" r="5.6" fill="#1F7A8C" stroke="#0D365F" stroke-width="1.4"/>
  <circle cx="12" cy="12" r="2.3" fill="#F0A63A" stroke="#0D365F" stroke-width="1.3"/>
</symbol>

<symbol id="i-clipboard" viewBox="0 0 24 24">
  <rect x="4.5" y="4" width="15" height="18" rx="2" fill="#EAF4F6" stroke="#0D365F" stroke-width="1.6"/>
  <rect x="8.6" y="2.2" width="6.8" height="3.6" rx="1.2" fill="#1F7A8C" stroke="#0D365F" stroke-width="1.4"/>
  <path d="M8 10.5h8M8 14h8M8 17.5h5" stroke="#0D365F" stroke-width="1.5" stroke-linecap="round"/>
  <circle cx="16.4" cy="17.5" r="1.1" fill="#F0A63A"/>
</symbol>

<symbol id="i-book" viewBox="0 0 24 24">
  <path d="M12 6.2C10.2 4.7 7.6 4 4 4v14.5c3.6 0 6.2.7 8 2.2 1.8-1.5 4.4-2.2 8-2.2V4c-3.6 0-6.2.7-8 2.2z" fill="#EAF4F6" stroke="#0D365F" stroke-width="1.6" stroke-linejoin="round"/>
  <path d="M12 6.2v14.5" stroke="#0D365F" stroke-width="1.5"/>
  <path d="M6.5 8.5c1.6.1 3 .4 4 1M6.5 12c1.6.1 3 .4 4 1" stroke="#1F7A8C" stroke-width="1.4" stroke-linecap="round" fill="none"/>
  <path d="M16 4.4V11l1.7-1.2L19.4 11V4.1" fill="#F0A63A" stroke="#0D365F" stroke-width="1.2" stroke-linejoin="round"/>
</symbol>

<symbol id="i-person" viewBox="0 0 24 24">
  <circle cx="12" cy="8" r="4" fill="#1F7A8C" stroke="#0D365F" stroke-width="1.6"/>
  <path d="M4.5 20.5a7.5 7.5 0 0 1 15 0z" fill="#8FD1C7" stroke="#0D365F" stroke-width="1.6" stroke-linejoin="round"/>
</symbol>

<symbol id="i-inbox" viewBox="0 0 24 24">
  <path d="M4 13.5 6 6a1.6 1.6 0 0 1 1.5-1.2h9A1.6 1.6 0 0 1 18 6l2 7.5V18a2 2 0 0 1-2 2H6a2 2 0 0 1-2-2z" fill="#EAF4F6" stroke="#0D365F" stroke-width="1.6" stroke-linejoin="round"/>
  <path d="M4 13.5h4.5a3.5 3.5 0 0 0 7 0H20V18a2 2 0 0 1-2 2H6a2 2 0 0 1-2-2z" fill="#1F7A8C" stroke="#0D365F" stroke-width="1.6" stroke-linejoin="round"/>
  <path d="M12 4.8v4.4M10.2 7.4l1.8 1.8 1.8-1.8" fill="none" stroke="#F0A63A" stroke-width="1.7" stroke-linecap="round" stroke-linejoin="round"/>
</symbol>

<symbol id="i-send" viewBox="0 0 24 24">
  <path d="M21 3.5 3.4 10.2a.9.9 0 0 0 .1 1.7l6.3 1.8 1.8 6.3a.9.9 0 0 0 1.7.1z" fill="#1F7A8C" stroke="#0D365F" stroke-width="1.6" stroke-linejoin="round"/>
  <path d="M9.8 13.7 21 3.5" stroke="#0D365F" stroke-width="1.4" stroke-linecap="round"/>
  <path d="M4.2 19.8 7 17M2.6 16.2l1.7-1.7" stroke="#F0A63A" stroke-width="1.7" stroke-linecap="round"/>
</symbol>

<symbol id="i-video" viewBox="0 0 24 24">
  <rect x="2.5" y="6.5" width="13" height="11" rx="2.2" fill="#1F7A8C" stroke="#0D365F" stroke-width="1.6"/>
  <path d="M15.5 10.5 21 7.5v9l-5.5-3z" fill="#8FD1C7" stroke="#0D365F" stroke-width="1.5" stroke-linejoin="round"/>
  <circle cx="6.8" cy="10.2" r="1.4" fill="#F0A63A"/>
</symbol>

<symbol id="i-ticket" viewBox="0 0 24 24">
  <path d="M3 7.5A1.5 1.5 0 0 1 4.5 6h15A1.5 1.5 0 0 1 21 7.5v2.6a2 2 0 0 0 0 3.8v2.6a1.5 1.5 0 0 1-1.5 1.5h-15A1.5 1.5 0 0 1 3 16.5v-2.6a2 2 0 0 0 0-3.8z" fill="#F0A63A" stroke="#0D365F" stroke-width="1.6" stroke-linejoin="round"/>
  <path d="M14.5 6.6v10.8" stroke="#0D365F" stroke-width="1.4" stroke-dasharray="1.6 2"/>
  <circle cx="8.8" cy="12" r="2" fill="#EAF4F6" stroke="#0D365F" stroke-width="1.2"/>
</symbol>

<symbol id="i-star" viewBox="0 0 24 24">
  <path d="M12 2.9l2.7 5.6 6.1.8-4.5 4.3 1.1 6.1L12 16.8l-5.4 2.9 1.1-6.1L3.2 9.3l6.1-.8z" fill="#F0A63A" stroke="#0D365F" stroke-width="1.5" stroke-linejoin="round"/>
  <path d="M12 5.8l1.5 3.1 3.3.4" fill="none" stroke="#fff" stroke-width="1.2" stroke-linecap="round" opacity=".65"/>
</symbol>

<symbol id="i-sun" viewBox="0 0 24 24">
  <circle cx="12" cy="12" r="4.6" fill="#F0A63A" stroke="#0D365F" stroke-width="1.6"/>
  <path d="M12 2.6v2.6M12 18.8v2.6M2.6 12h2.6M18.8 12h2.6M5.2 5.2l1.9 1.9M16.9 16.9l1.9 1.9M18.8 5.2l-1.9 1.9M7.1 16.9l-1.9 1.9" stroke="#1F7A8C" stroke-width="1.7" stroke-linecap="round"/>
</symbol>

<symbol id="i-search" viewBox="0 0 24 24">
  <circle cx="10.5" cy="10.5" r="6.5" fill="#EAF4F6" stroke="#0D365F" stroke-width="1.8"/>
  <path d="M15.4 15.4 21 21" stroke="#1F7A8C" stroke-width="2.2" stroke-linecap="round"/>
  <path d="M7.3 9.2a3.4 3.4 0 0 1 2.4-2.2" fill="none" stroke="#F0A63A" stroke-width="1.5" stroke-linecap="round"/>
</symbol>

<symbol id="i-grad" viewBox="0 0 24 24">
  <path d="M12 4 2.5 8.5 12 13l9.5-4.5z" fill="#1F7A8C" stroke="#0D365F" stroke-width="1.6" stroke-linejoin="round"/>
  <path d="M6.5 10.8v4.4c0 1.5 2.5 2.8 5.5 2.8s5.5-1.3 5.5-2.8v-4.4" fill="#EAF4F6" stroke="#0D365F" stroke-width="1.6"/>
  <path d="M21.5 8.5v5.2" stroke="#F0A63A" stroke-width="1.7" stroke-linecap="round"/>
  <circle cx="21.5" cy="15" r="1.2" fill="#F0A63A" stroke="#0D365F" stroke-width="1"/>
</symbol>

<symbol id="i-doc" viewBox="0 0 24 24">
  <path d="M6 2.8h8l4.5 4.5V21a1.5 1.5 0 0 1-1.5 1.5H6A1.5 1.5 0 0 1 4.5 21V4.3A1.5 1.5 0 0 1 6 2.8z" fill="#EAF4F6" stroke="#0D365F" stroke-width="1.6" stroke-linejoin="round"/>
  <path d="M14 2.8V7.3h4.5" fill="#8FD1C7" stroke="#0D365F" stroke-width="1.6" stroke-linejoin="round"/>
  <path d="M8 12h8M8 15.3h8M8 18.6h5" stroke="#1F7A8C" stroke-width="1.5" stroke-linecap="round"/>
</symbol>
</svg>
